<svg width="37" height="43" viewBox="0 0 37 43" fill="none" xmlns="http://www.w3.org/2000/svg">
<path d="M20.0732 0.083252C21.2916 0.083252 22.46 0.567235 23.3215 1.42873C24.183 2.29023 24.667 3.45866 24.667 4.677V18.1255C23.3959 18.7306 22.3309 19.6962 21.6045 20.9021V4.677C21.6045 4.27089 21.4432 3.88141 21.156 3.59424C20.8688 3.30708 20.4794 3.14575 20.0732 3.14575H4.76074C4.35463 3.14575 3.96515 3.30708 3.67798 3.59424C3.39082 3.88141 3.22949 4.27089 3.22949 4.677V36.3228C3.22949 37.1681 3.91549 37.8541 4.76074 37.8541H16.5003V39.8958C16.5003 40.2449 16.535 40.5858 16.6024 40.9166H4.76074C4.15748 40.9166 3.56013 40.7978 3.00279 40.5669C2.44545 40.3361 1.93904 39.9977 1.51247 39.5711C0.650976 38.7096 0.166992 37.5412 0.166992 36.3228V4.677C0.166992 3.45866 0.650976 2.29023 1.51247 1.42873C2.37397 0.567235 3.5424 0.083252 4.76074 0.083252H20.0732ZM22.6253 24.5833C22.6243 23.9127 22.7555 23.2485 23.0117 22.6287C23.2678 22.0089 23.6437 21.4458 24.1179 20.9717C24.5921 20.4975 25.1552 20.1216 25.7749 19.8654C26.3947 19.6093 27.0589 19.478 27.7295 19.4791C29.0832 19.4791 30.3815 20.0168 31.3387 20.9741C32.2959 21.9313 32.8337 23.2295 32.8337 24.5833V26.6249H33.8545C34.6667 26.6249 35.4457 26.9476 36.02 27.5219C36.5943 28.0962 36.917 28.8752 36.917 29.6874V39.8958C36.917 40.708 36.5943 41.4869 36.02 42.0613C35.4457 42.6356 34.6667 42.9583 33.8545 42.9583H21.6045C20.7923 42.9583 20.0133 42.6356 19.439 42.0613C18.8646 41.4869 18.542 40.708 18.542 39.8958V29.6874C18.542 28.8752 18.8646 28.0962 19.439 27.5219C20.0133 26.9476 20.7923 26.6249 21.6045 26.6249H22.6253V24.5833ZM25.6878 24.5833V26.6249H29.7712V24.5833C29.7712 24.0418 29.5561 23.5225 29.1732 23.1396C28.7903 22.7567 28.271 22.5416 27.7295 22.5416C27.188 22.5416 26.6687 22.7567 26.2858 23.1396C25.9029 23.5225 25.6878 24.0418 25.6878 24.5833ZM29.7712 34.7916C29.7712 34.2501 29.5561 33.7308 29.1732 33.3479C28.7903 32.965 28.271 32.7499 27.7295 32.7499C27.188 32.7499 26.6687 32.965 26.2858 33.3479C25.9029 33.7308 25.6878 34.2501 25.6878 34.7916C25.6878 35.3331 25.9029 35.8524 26.2858 36.2353C26.6687 36.6181 27.188 36.8333 27.7295 36.8333C28.271 36.8333 28.7903 36.6181 29.1732 36.2353C29.5561 35.8524 29.7712 35.3331 29.7712 34.7916ZM16.5003 33.2583V33.2603C16.5003 33.6661 16.3393 34.0553 16.0526 34.3424C15.7658 34.6295 15.3769 34.791 14.9711 34.7916L9.86695 34.7998C9.46084 34.8003 9.07114 34.6395 8.7836 34.3527C8.49605 34.0659 8.3342 33.6767 8.33366 33.2705C8.33312 32.8644 8.49393 32.4747 8.78071 32.1872C9.06749 31.8996 9.45675 31.7378 9.86287 31.7373L14.967 31.7291C15.1681 31.7288 15.3673 31.7682 15.5532 31.8449C15.7391 31.9216 15.908 32.0341 16.0504 32.1761C16.1928 32.3181 16.3058 32.4868 16.383 32.6725C16.4602 32.8581 16.5001 33.0572 16.5003 33.2583Z" fill="#BB83FF"/>
</svg>
